<?xml version="1.0" encoding="UTF-8"?>
<svg id="icon" xmlns="http://www.w3.org/2000/svg" viewBox="0 0 24 24" fill="#f7931e" stroke="none">
	<path d="M6.55,17.45v2.18H0c1.13-.47,2.11-1.23,2.86-2.18.92-1.18,1.48-2.66,1.5-4.26,0-.03,0-.07,0-.1s0-.07,0-.1c-.01-1.51-.32-2.95-.86-4.26h3.04v8.73h0Z"/>
	<path d="M13.08,17.45v2.18s6.55,0,6.55,0c-1.13-.47-2.11-1.23-2.86-2.18-.92-1.18-1.48-2.66-1.5-4.26,0-.03,0-.07,0-.1s0-.07,0-.1c.01-1.51.32-2.95.86-4.26h-3.04s0,8.73,0,8.73h0Z"/>
	<polygon points="24 4.36 21.82 6.55 21.82 6.55 10.91 6.55 10.91 15.27 8.72 15.27 8.72 6.55 3.27 6.55 5.45 4.36 24 4.36"/>
	<polygon points="21.81 10.91 19.63 13.09 17.45 13.09 17.45 10.91 21.81 10.91"/>
</svg>